<svg width="29" height="28" viewBox="0 0 29 28" fill="none" xmlns="http://www.w3.org/2000/svg">
<path d="M14.4348 27.2612C21.9628 27.2612 28.0654 21.1586 28.0654 13.6306C28.0654 6.10263 21.9628 0 14.4348 0C6.90683 0 0.804199 6.10263 0.804199 13.6306C0.804199 21.1586 6.90683 27.2612 14.4348 27.2612Z" fill="white"/>
<path d="M14.4349 6.59487C16.7269 6.59487 16.9975 6.59487 17.9021 6.64535C18.4469 6.65093 18.9866 6.75067 19.4974 6.94018C19.8685 7.08241 20.2057 7.30069 20.4874 7.58099C20.7691 7.86129 20.989 8.19742 21.1331 8.56777C21.3226 9.07856 21.4223 9.61828 21.4279 10.1631C21.4703 11.0677 21.4784 11.3383 21.4784 13.6303C21.4784 15.9222 21.4784 16.1928 21.4279 17.0975C21.4223 17.6423 21.3226 18.182 21.1331 18.6928C20.9899 19.0624 20.7712 19.398 20.4909 19.6782C20.2107 19.9585 19.8751 20.1772 19.5055 20.3204C18.9947 20.5099 18.455 20.6096 17.9102 20.6152C17.0055 20.6576 16.7349 20.6657 14.443 20.6657C12.151 20.6657 11.8804 20.6657 10.9758 20.6152C10.431 20.6096 9.89126 20.5099 9.38047 20.3204C9.0109 20.1772 8.67526 19.9585 8.39501 19.6782C8.11476 19.398 7.89605 19.0624 7.75288 18.6928C7.56337 18.182 7.46363 17.6423 7.45805 17.0975C7.40151 16.1928 7.40151 15.9222 7.40151 13.6303C7.40151 11.3383 7.40151 11.0677 7.452 10.1631C7.45757 9.61828 7.55731 9.07856 7.74682 8.56777C7.88999 8.1982 8.1087 7.86256 8.38895 7.58231C8.6692 7.30206 9.00484 7.08335 9.37441 6.94018C9.8852 6.75067 10.4249 6.65093 10.9697 6.64535C11.8744 6.60295 12.145 6.59487 14.4369 6.59487M14.4369 5.04805C12.1066 5.04805 11.8118 5.05815 10.899 5.10055C10.1864 5.11556 9.48165 5.25214 8.81506 5.50442C8.24473 5.72457 7.72677 6.06162 7.29449 6.4939C6.8622 6.92619 6.52515 7.44414 6.30501 8.01447C6.05273 8.68107 5.91614 9.38586 5.90114 10.0984C5.85873 11.0132 5.84863 11.31 5.84863 13.6363C5.84863 15.9626 5.85873 16.2615 5.90114 17.1742C5.91614 17.8868 6.05273 18.5916 6.30501 19.2582C6.52586 19.8274 6.86322 20.3442 7.29547 20.7754C7.72772 21.2066 8.24531 21.5427 8.81506 21.7622C9.48165 22.0145 10.1864 22.1511 10.899 22.1661C11.8138 22.2085 12.1106 22.2186 14.4369 22.2186C16.7632 22.2186 17.0621 22.2186 17.9748 22.1661C18.6874 22.1511 19.3922 22.0145 20.0588 21.7622C20.6287 21.5418 21.1463 21.2047 21.5782 20.7724C22.0101 20.3401 22.3469 19.8223 22.5668 19.2521C22.8191 18.5855 22.9557 17.8808 22.9707 17.1682C23.0131 16.2534 23.0232 15.9566 23.0232 13.6303C23.0232 11.304 23.0131 11.0051 22.9707 10.0924C22.9557 9.3798 22.8191 8.67501 22.5668 8.00841C22.3467 7.43808 22.0096 6.92013 21.5773 6.48784C21.1451 6.05556 20.6271 5.71851 20.0568 5.49836C19.3902 5.24609 18.6854 5.1095 17.9728 5.0945C17.058 5.05209 16.7612 5.04199 14.4349 5.04199L14.4369 5.04805Z" fill="#3D7245"/>
<path d="M14.4345 9.22461C13.5631 9.22461 12.7112 9.48303 11.9866 9.96719C11.262 10.4514 10.6972 11.1395 10.3637 11.9446C10.0302 12.7498 9.94297 13.6357 10.113 14.4904C10.283 15.3452 10.7027 16.1303 11.3189 16.7465C11.9351 17.3627 12.7202 17.7824 13.5749 17.9524C14.4296 18.1224 15.3156 18.0351 16.1207 17.7016C16.9259 17.3681 17.614 16.8034 18.0982 16.0788C18.5823 15.3542 18.8408 14.5023 18.8408 13.6308C18.8408 12.4622 18.3765 11.3415 17.5502 10.5152C16.7239 9.68883 15.6031 9.22461 14.4345 9.22461ZM14.4345 16.4943C13.8687 16.4943 13.3155 16.3265 12.845 16.0122C12.3745 15.6978 12.0078 15.2511 11.7911 14.7283C11.5745 14.2056 11.5177 13.6304 11.628 13.0754C11.7382 12.5203 12.0105 12.0105 12.4105 11.6102C12.8105 11.21 13.3201 10.9373 13.8751 10.8267C14.43 10.716 15.0053 10.7724 15.5282 10.9887C16.0511 11.2049 16.4981 11.5714 16.8127 12.0417C17.1274 12.512 17.2956 13.065 17.296 13.6308C17.2954 14.3896 16.9938 15.1171 16.4573 15.6536C15.9208 16.1901 15.1933 16.4917 14.4345 16.4922V16.4943Z" fill="#3D7245"/>
<path d="M19.0167 10.0783C19.5855 10.0783 20.0466 9.6172 20.0466 9.04842C20.0466 8.47964 19.5855 8.01855 19.0167 8.01855C18.4479 8.01855 17.9868 8.47964 17.9868 9.04842C17.9868 9.6172 18.4479 10.0783 19.0167 10.0783Z" fill="#3D7245"/>
</svg>
