<svg width="29" height="28" viewBox="0 0 29 28" fill="none" xmlns="http://www.w3.org/2000/svg">
<path d="M14.5652 27.2612C22.0931 27.2612 28.1958 21.1586 28.1958 13.6306C28.1958 6.10262 22.0931 0 14.5652 0C7.0372 0 0.93457 6.10262 0.93457 13.6306C0.93457 21.1586 7.0372 27.2612 14.5652 27.2612Z" fill="white"/>
<path d="M15.6192 11.7709C15.8433 11.5185 16.023 11.2641 16.2573 11.048C16.59 10.7233 16.984 10.4681 17.4163 10.2971C17.8486 10.1262 18.3106 10.0431 18.7754 10.0525C19.3105 10.0476 19.8438 10.1155 20.3606 10.2544C21.5439 10.5957 22.2305 11.4115 22.5597 12.5666C22.7745 13.4299 22.8703 14.3186 22.8444 15.2079C22.8444 17.0899 22.8444 18.974 22.8444 20.862C22.8444 21.0377 22.7959 21.0842 22.6223 21.0842C21.651 21.0842 20.6817 21.0842 19.7124 21.0842C19.5407 21.0842 19.5105 21.0317 19.5105 20.8701C19.5105 19.0796 19.5105 17.2885 19.5105 15.4966C19.5208 15.0465 19.4678 14.5972 19.3529 14.1618C19.1207 13.3541 18.5452 12.9502 17.7031 12.9926C16.5541 13.0532 15.9544 13.6227 15.809 14.7919C15.7734 15.0705 15.7559 15.3511 15.7565 15.6319C15.7565 17.3746 15.7565 19.1173 15.7565 20.86C15.7565 21.0337 15.7121 21.0842 15.5344 21.0842C14.559 21.0842 13.5816 21.0842 12.6043 21.0842C12.4468 21.0842 12.4023 21.0438 12.4023 20.8822C12.4023 17.4305 12.4023 13.9801 12.4023 10.5311C12.4023 10.3614 12.4569 10.3291 12.6184 10.3291C13.5473 10.3291 14.4742 10.3291 15.4031 10.3291C15.5727 10.3291 15.6172 10.3816 15.605 10.5432C15.6131 10.945 15.6192 11.359 15.6192 11.7709Z" fill="#3D7245"/>
<path d="M10.3043 15.7124C10.3043 17.4187 10.3043 19.1271 10.3043 20.8334C10.3043 21.0233 10.2579 21.0798 10.062 21.0778C9.09071 21.0778 8.12142 21.0778 7.15213 21.0778C6.99664 21.0778 6.9502 21.0414 6.9502 20.8758C6.9502 17.4201 6.9502 13.965 6.9502 10.5105C6.9502 10.3672 6.98654 10.3086 7.13799 10.3086C8.12142 10.3086 9.10485 10.3086 10.0883 10.3086C10.2781 10.3086 10.3023 10.3813 10.3023 10.5428C10.301 12.2687 10.3016 13.9919 10.3043 15.7124Z" fill="#3D7245"/>
<path d="M10.5708 6.89424C10.5728 7.27785 10.4609 7.65341 10.2491 7.97329C10.0374 8.29316 9.73537 8.54295 9.38145 8.69095C9.02754 8.83895 8.63764 8.87851 8.26121 8.8046C7.88478 8.7307 7.53879 8.54666 7.26711 8.27583C6.99542 8.005 6.8103 7.65958 6.73521 7.28338C6.66013 6.90719 6.69846 6.51717 6.84535 6.16279C6.99224 5.80842 7.24107 5.50565 7.56028 5.29289C7.87949 5.08014 8.25471 4.96698 8.63832 4.96778C9.14916 4.96989 9.63856 5.17334 10.0003 5.534C10.3621 5.89465 10.5671 6.38341 10.5708 6.89424V6.89424Z" fill="#3D7245"/>
</svg>
