<svg width="28" height="28" viewBox="0 0 28 28" fill="none" xmlns="http://www.w3.org/2000/svg">
<path d="M13.6306 27.2612C21.1586 27.2612 27.2612 21.1586 27.2612 13.6306C27.2612 6.10262 21.1586 0 13.6306 0C6.10263 0 0 6.10262 0 13.6306C0 21.1586 6.10263 27.2612 13.6306 27.2612Z" fill="white"/>
<path d="M22.3483 9.2567C22.2453 8.86892 22.0417 8.51526 21.758 8.23156C21.4743 7.94786 21.1206 7.7442 20.7328 7.64122C19.3193 7.26563 13.6308 7.26562 13.6308 7.26562C13.6308 7.26562 7.94834 7.26563 6.53076 7.64526C6.14298 7.74824 5.78932 7.9519 5.50561 8.2356C5.22191 8.5193 5.01826 8.87296 4.91528 9.26074C4.53565 10.6743 4.53564 13.6346 4.53564 13.6346C4.53564 13.6346 4.53565 16.591 4.91528 18.0086C5.01882 18.3961 5.22267 18.7494 5.50628 19.033C5.7899 19.3166 6.14326 19.5205 6.53076 19.624C7.9443 20.0037 13.6308 20.0037 13.6308 20.0037C13.6308 20.0037 19.3193 19.9875 20.7328 19.6119C21.1203 19.5084 21.4737 19.3045 21.7573 19.0209C22.0409 18.7373 22.2448 18.3839 22.3483 17.9964C22.7279 16.5829 22.7279 13.6225 22.7279 13.6225C22.7279 13.6225 22.7178 10.6723 22.3483 9.2567Z" fill="#3D7245"/>
<path d="M5.28467 7.97266L13.665 16.05L21.9443 7.97266" stroke="white" stroke-width="1.21161"/>
<path d="M3.97217 20.7949L11.8889 14.333M15.8863 14.5349L23.8031 20.9969" stroke="white" stroke-width="1.21161"/>
</svg>
