<svg width="37" height="36" viewBox="0 0 37 36" fill="none" xmlns="http://www.w3.org/2000/svg">
<g filter="url(#filter0_d_285_436)">
<path d="M18.4997 27.2612C26.0277 27.2612 32.1303 21.1586 32.1303 13.6306C32.1303 6.10263 26.0277 0 18.4997 0C10.9718 0 4.86914 6.10263 4.86914 13.6306C4.86914 21.1586 10.9718 27.2612 18.4997 27.2612Z" fill="white"/>
<path fill-rule="evenodd" clip-rule="evenodd" d="M25.0568 7.24163C23.5747 5.75568 21.6027 4.85951 19.5086 4.72024C17.4144 4.58097 15.3411 5.2081 13.6753 6.48469C12.0094 7.76128 10.8647 9.60018 10.4546 11.6585C10.0445 13.7168 10.397 15.854 11.4464 17.6716L10.2207 22.1505L14.8026 20.9389C16.0691 21.6364 17.4903 22.0051 18.9362 22.0111V22.0111C20.6462 22.0113 22.3179 21.5044 23.7399 20.5545C25.1619 19.6046 26.2703 18.2545 26.9249 16.6747C27.5796 15.0949 27.7512 13.3565 27.418 11.6793C27.0847 10.002 26.2617 8.46124 25.0528 7.25172L25.0568 7.24163ZM18.9382 20.541C17.6507 20.539 16.3874 20.1902 15.2812 19.5314L15.0187 19.3759L12.2986 20.0887L13.0236 17.4373L12.8459 17.1748C11.9988 15.8251 11.6242 14.2322 11.7811 12.6465C11.938 11.0608 12.6175 9.57219 13.7126 8.41473C14.8078 7.25727 16.2566 6.49659 17.8312 6.25229C19.4059 6.008 21.017 6.29394 22.4114 7.06516C23.8058 7.83638 24.9044 9.04915 25.5344 10.5128C26.1643 11.9764 26.2901 13.6079 25.8917 15.1508C25.4934 16.6937 24.5936 18.0604 23.3338 19.0361C22.074 20.0119 20.5256 20.5412 18.9322 20.541H18.9382ZM22.882 15.1595C22.6659 15.0525 21.6038 14.5294 21.4059 14.4568C21.208 14.3841 21.0626 14.3497 20.9192 14.5658C20.7758 14.7819 20.3619 15.2685 20.2347 15.4119C20.1074 15.5553 19.9822 15.5755 19.7662 15.4664C19.129 15.2134 18.5412 14.8505 18.0295 14.3942C17.5568 13.958 17.1518 13.4536 16.828 12.8978C16.7008 12.6817 16.8139 12.5646 16.9229 12.4576C17.032 12.3506 17.139 12.2052 17.246 12.08C17.3356 11.9687 17.4083 11.8448 17.4621 11.7125C17.4901 11.6528 17.5031 11.5872 17.4999 11.5214C17.4967 11.4556 17.4775 11.3915 17.4439 11.3348C17.3894 11.2258 16.9572 10.1636 16.7775 9.73148C16.5978 9.29934 16.4241 9.36598 16.2929 9.35992C16.1616 9.35386 16.0223 9.35992 15.8769 9.35992C15.7675 9.36302 15.66 9.38866 15.5609 9.43522C15.4619 9.48177 15.3735 9.54826 15.3014 9.63051C15.0574 9.86192 14.8643 10.1416 14.7342 10.4517C14.6042 10.7618 14.5402 11.0956 14.5461 11.4318C14.5461 12.496 15.3196 13.5218 15.4286 13.6672C15.5376 13.8126 16.9512 15.9935 19.1179 16.9284C19.5203 17.1013 19.9315 17.2529 20.3497 17.3828C20.7905 17.5171 21.2565 17.5468 21.7108 17.4696C22.1268 17.407 22.989 16.9466 23.1688 16.4418C23.3485 15.9369 23.3505 15.5048 23.296 15.4139C23.2415 15.3231 23.0981 15.2685 22.882 15.1595Z" fill="#3D7245"/>
</g>
<defs>
<filter id="filter0_d_285_436" x="0.869141" y="0" width="35.2612" height="35.2607" filterUnits="userSpaceOnUse" color-interpolation-filters="sRGB">
<feFlood flood-opacity="0" result="BackgroundImageFix"/>
<feColorMatrix in="SourceAlpha" type="matrix" values="0 0 0 0 0 0 0 0 0 0 0 0 0 0 0 0 0 0 127 0" result="hardAlpha"/>
<feOffset dy="4"/>
<feGaussianBlur stdDeviation="2"/>
<feComposite in2="hardAlpha" operator="out"/>
<feColorMatrix type="matrix" values="0 0 0 0 0 0 0 0 0 0 0 0 0 0 0 0 0 0 0.25 0"/>
<feBlend mode="normal" in2="BackgroundImageFix" result="effect1_dropShadow_285_436"/>
<feBlend mode="normal" in="SourceGraphic" in2="effect1_dropShadow_285_436" result="shape"/>
</filter>
</defs>
</svg>
