<svg id="Layer_1" data-name="Layer 1" xmlns="http://www.w3.org/2000/svg" viewBox="0 0 792 132.18"><defs><style>.cls-1{fill:#1d1d1b;}</style></defs><path class="cls-1" d="M12.67,7.78H56.51q23.82,0,36.89,8.77t13.07,26.8q0,17.86-12.9,26.64T56.51,78.75H29.87v44.84H12.67Zm44.17,63q32.43,0,32.43-27.46,0-27.63-32.43-27.63h-27V70.81Z"/><path class="cls-1" d="M252,115.48q-14.4-9.75-15.88-27.79H251q1.15,15.23,11,22.42t29,7.19q17,0,26.06-6t9-17a17.51,17.51,0,0,0-3.48-11.09q-3.47-4.47-11.83-7.94t-23.41-6.45q-24-4.64-36.15-12T239.1,36.07q0-14.89,13.9-22.42t36.56-7.52q23,0,35.82,8.18t14.81,22.75H325.46Q323,25,313.8,19.53t-25.39-5.46q-15.72,0-23.91,5.13t-8.19,14.22a14.12,14.12,0,0,0,3.14,9.27q3.15,3.81,11,7t22.41,6.12q17.86,3.65,28.71,7.94t16.29,11.17q5.46,6.85,5.46,17.45,0,15.56-14,24.24t-38,8.68Q266.41,125.24,252,115.48Z"/><path class="cls-1" d="M403.39,15.72h-49V7.78h115v7.94H420.59V123.59h-17.2Z"/><path class="cls-1" d="M489.91,7.78h17.21V123.59H489.91Z"/><path class="cls-1" d="M538.39,7.78h17.37l70.47,89.83V7.78h14.56V123.59h-8.6L552.94,22.83V123.59H538.39Z"/><path class="cls-1" d="M158.07,20.69l52.72,102.9h18.87L167,4.63Z"/><path class="cls-1" d="M120.59,91.45c-7,17.94-11.29,29.3-27.55,33.2,12.41,3.39,31.83-1.78,42.05-25.58s6.79-34.66,21-45.42C141.2,54.9,127.62,73.5,120.59,91.45Z"/><path class="cls-1" d="M721.11,30.6l47.56,93.16h18.9L724.77,4.63,658.91,123.76h12.2Z"/><rect class="cls-1" x="681.26" y="86.84" width="75.05" height="7.46"/></svg>