<svg width="28" height="28" viewBox="0 0 28 28" fill="none" xmlns="http://www.w3.org/2000/svg">
<path d="M28 13.6303C27.9999 11.025 27.2532 8.47432 25.8483 6.2803C24.4434 4.08629 22.4392 2.34085 20.073 1.2507C17.7067 0.160545 15.0777 -0.228649 12.4971 0.129206C9.91652 0.487061 7.49255 1.57697 5.51226 3.26987C3.53197 4.96276 2.07832 7.18771 1.32346 9.68123C0.568603 12.1747 0.544158 14.8324 1.25302 17.3393C1.96189 19.8463 3.37436 22.0976 5.32318 23.8267C7.27199 25.5557 9.67549 26.69 12.2491 27.0953V17.568H8.77779V13.6303H12.2491V10.6275C12.2491 7.21076 14.2684 5.32469 17.3883 5.32469C18.4105 5.33899 19.4303 5.42808 20.4395 5.59124V8.94538H18.7211C17.0268 8.94538 16.4998 9.99544 16.4998 11.0738V13.6303H20.28L19.6742 17.568H16.4998V27.0933C19.7055 26.5856 22.6249 24.9508 24.733 22.4829C26.8411 20.015 27.9995 16.876 28 13.6303V13.6303Z" fill="white"/>
<path d="M19.6742 17.5685L20.28 13.6288H16.4998V11.0743C16.4998 9.99595 17.0269 8.94589 18.7211 8.94589H20.4396V5.59175C19.4303 5.42859 18.4105 5.3395 17.3883 5.3252C14.2684 5.3252 12.2491 7.21127 12.2491 10.628V13.6308H8.77783V17.5685H12.2491V27.0938C13.6608 27.3145 15.0982 27.3145 16.5099 27.0938V17.5685H19.6742Z" fill="#3D7245"/>
</svg>
