<svg width="94" height="91" viewBox="0 0 94 91" fill="none" xmlns="http://www.w3.org/2000/svg">
<path d="M75.3033 79.9817C79.4456 77.5654 83.5878 72.3876 90.4916 59.6157C91.8723 57.0843 91.5948 51.4693 91.871 47.8793C92.2162 43.3919 93.254 33.7266 91.8732 28.894C90.4925 24.0614 69.0894 5.76641 64.2568 2.65973C59.4242 -0.446959 52.8661 1.62416 43.5461 2.65973C34.226 3.69529 33.1904 3.00492 25.2511 4.04048C17.3118 5.07605 8.33691 25.0969 8.33691 30.2747C8.33691 35.4526 1.43313 45.463 1.08795 52.0216C0.742758 58.5801 5.9206 66.8646 8.33691 71.6972C10.7532 76.5299 19.7281 77.9106 25.2511 81.3625C30.7741 84.8144 35.6062 89.9922 39.7485 89.9922C43.8907 89.9922 53.556 88.9566 57.0079 88.6114C60.4597 88.2663 71.1611 82.3981 75.3033 79.9817Z" stroke="#313131"/>
<path d="M47.6256 63.6836L47.6256 28.0378M47.6256 28.0378C46.0604 31.2383 41.5526 37.7012 36.043 37.949M47.6256 28.0378C49.2952 31.3415 53.7613 37.949 58.2692 37.949" stroke="#313131"/>
</svg>
