<svg width="89" height="92" viewBox="0 0 89 92" fill="none" xmlns="http://www.w3.org/2000/svg">
<path d="M10.0143 74.3033C12.4307 78.4456 17.6085 82.5878 30.3804 89.4916C32.9118 90.8723 38.5268 90.5948 42.1168 90.871C46.6042 91.2162 56.2695 92.254 61.1021 90.8732C65.9347 89.4925 84.2297 68.0894 87.3364 63.2568C90.4431 58.4242 88.3719 51.8661 87.3364 42.5461C86.3008 33.226 86.9912 32.1904 85.9556 24.2511C84.9201 16.3118 64.8992 7.33691 59.7214 7.33691C54.5435 7.33691 44.5331 0.433136 37.9745 0.0879517C31.416 -0.25724 23.1315 4.9206 18.2988 7.33691C13.4662 9.75323 12.0855 18.7281 8.6336 24.2511C5.18172 29.7741 0.00390625 34.6062 0.00390625 38.7485C0.00390625 42.8907 1.03947 52.556 1.38466 56.0079C1.72984 59.4597 7.59803 70.1611 10.0143 74.3033Z" fill="#BC2E19"/>
<path d="M26.3125 46.6256H61.9583M61.9583 46.6256C58.7578 45.0604 52.2949 40.5526 52.0471 35.043M61.9583 46.6256C58.6546 48.2952 52.0471 52.7613 52.0471 57.2692" stroke="white"/>
</svg>
