<svg width="96" height="125" viewBox="0 0 96 125" fill="none" xmlns="http://www.w3.org/2000/svg">
<g clip-path="url(#clip0_160_194)">
<path d="M76.3033 80.9857C80.4456 78.5693 84.5878 73.3915 91.4916 60.6196C92.8723 58.0882 92.5948 52.4732 92.871 48.8832C93.2162 44.3958 94.254 34.7305 92.8732 29.8979C91.4925 25.0653 70.0894 6.77032 65.2568 3.66364C60.4242 0.556947 53.8661 2.62807 44.5461 3.66364C35.226 4.6992 34.1904 4.00883 26.2511 5.04439C18.3118 6.07995 9.33691 26.1008 9.33691 31.2786C9.33691 36.4565 2.43313 46.4669 2.08795 53.0255C1.74276 59.584 6.9206 67.8685 9.33691 72.7012C11.7532 77.5338 20.7281 78.9145 26.2511 82.3664C31.7741 85.8183 36.6062 90.9961 40.7485 90.9961C44.8907 90.9961 54.556 89.9605 58.0079 89.6153C61.4597 89.2702 72.1611 83.402 76.3033 80.9857Z" stroke="#313131"/>
<path d="M48.6256 64.6875L48.6256 29.0417M48.6256 29.0417C47.0604 32.2422 42.5526 38.7051 37.043 38.9529M48.6256 29.0417C50.2952 32.3454 54.7613 38.9529 59.2692 38.9529" stroke="#313131"/>
</g>
<path d="M8.25684 118.68L3.00098 109.504L2.89551 108.959V118.68H1.76172V106.076H2.35059L7.60645 115.261L7.7207 115.797V106.076H8.85449V118.68H8.25684ZM16.8613 118.68L16.2637 117.783C16.0176 118.105 15.71 118.366 15.3408 118.565C14.9717 118.759 14.5674 118.855 14.1279 118.855H13.8555C13.4922 118.855 13.1494 118.788 12.8271 118.653C12.5049 118.513 12.2236 118.322 11.9834 118.082C11.7432 117.842 11.5527 117.561 11.4121 117.238C11.2773 116.916 11.21 116.573 11.21 116.21V116.122C11.21 115.759 11.2773 115.416 11.4121 115.094C11.5527 114.771 11.7432 114.49 11.9834 114.25C12.2236 114.01 12.5049 113.822 12.8271 113.688C13.1494 113.547 13.4922 113.477 13.8555 113.477H16.1406V112.088C16.1406 111.871 16.0996 111.669 16.0176 111.481C15.9355 111.288 15.8242 111.121 15.6836 110.98C15.543 110.84 15.376 110.729 15.1826 110.646C14.9951 110.564 14.793 110.523 14.5762 110.523H13.9434C13.7266 110.523 13.5215 110.564 13.3281 110.646C13.1406 110.729 12.9766 110.84 12.8359 110.98C12.6953 111.121 12.584 111.288 12.502 111.481C12.4199 111.669 12.3789 111.871 12.3789 112.088V112.413L11.2979 112.237V112.149C11.2979 111.786 11.3652 111.443 11.5 111.121C11.6406 110.799 11.8311 110.518 12.0713 110.277C12.3115 110.037 12.5928 109.85 12.915 109.715C13.2373 109.574 13.5801 109.504 13.9434 109.504H14.5762C14.9395 109.504 15.2822 109.574 15.6045 109.715C15.9268 109.85 16.208 110.037 16.4482 110.277C16.6885 110.518 16.876 110.799 17.0107 111.121C17.1514 111.443 17.2217 111.786 17.2217 112.149V118.68H16.8613ZM16.1406 114.32H13.8555C13.6387 114.32 13.4336 114.361 13.2402 114.443C13.0527 114.525 12.8887 114.64 12.748 114.786C12.6074 114.927 12.4961 115.094 12.4141 115.287C12.332 115.475 12.291 115.677 12.291 115.894V116.271C12.291 116.488 12.332 116.693 12.4141 116.887C12.4961 117.074 12.6074 117.238 12.748 117.379C12.8887 117.52 13.0527 117.631 13.2402 117.713C13.4336 117.795 13.6387 117.836 13.8555 117.836H14.5762C14.793 117.836 14.9951 117.795 15.1826 117.713C15.376 117.631 15.543 117.52 15.6836 117.379C15.8242 117.238 15.9355 117.074 16.0176 116.887C16.0996 116.693 16.1406 116.488 16.1406 116.271V114.32ZM25.3955 116.21C25.3955 116.573 25.3252 116.916 25.1846 117.238C25.0498 117.561 24.8623 117.842 24.6221 118.082C24.3818 118.322 24.1006 118.513 23.7783 118.653C23.4561 118.788 23.1133 118.855 22.75 118.855H22.0293C21.666 118.855 21.3232 118.788 21.001 118.653C20.6787 118.513 20.3975 118.322 20.1572 118.082C19.917 117.842 19.7266 117.561 19.5859 117.238C19.4512 116.916 19.3838 116.573 19.3838 116.21V112.149C19.3838 111.786 19.4512 111.443 19.5859 111.121C19.7266 110.799 19.917 110.518 20.1572 110.277C20.3975 110.037 20.6787 109.85 21.001 109.715C21.3232 109.574 21.666 109.504 22.0293 109.504H22.75C23.1133 109.504 23.4561 109.574 23.7783 109.715C24.1006 109.85 24.3818 110.037 24.6221 110.277C24.8623 110.518 25.0498 110.799 25.1846 111.121C25.3252 111.443 25.3955 111.786 25.3955 112.149V112.51L24.3145 112.686V112.088C24.3145 111.871 24.2734 111.669 24.1914 111.481C24.1094 111.288 23.998 111.121 23.8574 110.98C23.7168 110.84 23.5498 110.729 23.3564 110.646C23.1689 110.564 22.9668 110.523 22.75 110.523H22.0293C21.8125 110.523 21.6074 110.564 21.4141 110.646C21.2266 110.729 21.0625 110.84 20.9219 110.98C20.7812 111.121 20.6699 111.288 20.5879 111.481C20.5059 111.669 20.4648 111.871 20.4648 112.088V116.271C20.4648 116.488 20.5059 116.693 20.5879 116.887C20.6699 117.074 20.7812 117.238 20.9219 117.379C21.0625 117.52 21.2266 117.631 21.4141 117.713C21.6074 117.795 21.8125 117.836 22.0293 117.836H22.75C22.9668 117.836 23.1689 117.795 23.3564 117.713C23.5498 117.631 23.7168 117.52 23.8574 117.379C23.998 117.238 24.1094 117.074 24.1914 116.887C24.2734 116.693 24.3145 116.488 24.3145 116.271V115.674L25.3955 115.85V116.21ZM32.4883 118.68V112.088C32.4883 111.871 32.4473 111.669 32.3652 111.481C32.2832 111.288 32.1719 111.121 32.0312 110.98C31.8906 110.84 31.7236 110.729 31.5303 110.646C31.3428 110.564 31.1406 110.523 30.9238 110.523H30.2031C29.9863 110.523 29.7812 110.564 29.5879 110.646C29.4004 110.729 29.2363 110.84 29.0957 110.98C28.9551 111.121 28.8438 111.288 28.7617 111.481C28.6797 111.669 28.6387 111.871 28.6387 112.088V118.68H27.5576V106.076H28.6387V110.436C28.8848 110.143 29.1807 109.914 29.5264 109.75C29.8721 109.586 30.2471 109.504 30.6514 109.504H30.9238C31.2871 109.504 31.6299 109.574 31.9521 109.715C32.2744 109.85 32.5557 110.037 32.7959 110.277C33.0361 110.518 33.2236 110.799 33.3584 111.121C33.499 111.443 33.5693 111.786 33.5693 112.149V118.68H32.4883ZM45.8916 116.21C45.8916 116.573 45.8213 116.916 45.6807 117.238C45.5459 117.561 45.3584 117.842 45.1182 118.082C44.8779 118.322 44.5967 118.513 44.2744 118.653C43.9521 118.788 43.6094 118.855 43.2461 118.855H42.5254C42.1621 118.855 41.8193 118.788 41.4971 118.653C41.1748 118.513 40.8936 118.322 40.6533 118.082C40.4131 117.842 40.2227 117.561 40.082 117.238C39.9473 116.916 39.8799 116.573 39.8799 116.21V112.149C39.8799 111.786 39.9473 111.443 40.082 111.121C40.2227 110.799 40.4131 110.518 40.6533 110.277C40.8936 110.037 41.1748 109.85 41.4971 109.715C41.8193 109.574 42.1621 109.504 42.5254 109.504H43.2461C43.6094 109.504 43.9521 109.574 44.2744 109.715C44.5967 109.85 44.8779 110.037 45.1182 110.277C45.3584 110.518 45.5459 110.799 45.6807 111.121C45.8213 111.443 45.8916 111.786 45.8916 112.149V116.21ZM44.8105 112.088C44.8105 111.871 44.7695 111.669 44.6875 111.481C44.6055 111.288 44.4941 111.121 44.3535 110.98C44.2129 110.84 44.0459 110.729 43.8525 110.646C43.665 110.564 43.4629 110.523 43.2461 110.523H42.5254C42.3086 110.523 42.1035 110.564 41.9102 110.646C41.7227 110.729 41.5586 110.84 41.418 110.98C41.2773 111.121 41.166 111.288 41.084 111.481C41.002 111.669 40.9609 111.871 40.9609 112.088V116.271C40.9609 116.488 41.002 116.693 41.084 116.887C41.166 117.074 41.2773 117.238 41.418 117.379C41.5586 117.52 41.7227 117.631 41.9102 117.713C42.1035 117.795 42.3086 117.836 42.5254 117.836H43.2461C43.4629 117.836 43.665 117.795 43.8525 117.713C44.0459 117.631 44.2129 117.52 44.3535 117.379C44.4941 117.238 44.6055 117.074 44.6875 116.887C44.7695 116.693 44.8105 116.488 44.8105 116.271V112.088ZM54.0654 116.21C54.0654 116.573 53.9951 116.916 53.8545 117.238C53.7197 117.561 53.5322 117.842 53.292 118.082C53.0518 118.322 52.7705 118.513 52.4482 118.653C52.126 118.788 51.7832 118.855 51.4199 118.855H50.6992C50.3359 118.855 49.9932 118.788 49.6709 118.653C49.3486 118.513 49.0674 118.322 48.8271 118.082C48.5869 117.842 48.3965 117.561 48.2559 117.238C48.1211 116.916 48.0537 116.573 48.0537 116.21V106.076H49.1348V110.436C49.3809 110.143 49.6768 109.914 50.0225 109.75C50.3682 109.586 50.7432 109.504 51.1475 109.504H51.4199C51.7832 109.504 52.126 109.574 52.4482 109.715C52.7705 109.85 53.0518 110.037 53.292 110.277C53.5322 110.518 53.7197 110.799 53.8545 111.121C53.9951 111.443 54.0654 111.786 54.0654 112.149V116.21ZM52.9844 112.088C52.9844 111.871 52.9434 111.669 52.8613 111.481C52.7793 111.288 52.668 111.121 52.5273 110.98C52.3867 110.84 52.2197 110.729 52.0264 110.646C51.8389 110.564 51.6367 110.523 51.4199 110.523H50.6992C50.4824 110.523 50.2773 110.564 50.084 110.646C49.8965 110.729 49.7324 110.84 49.5918 110.98C49.4512 111.121 49.3398 111.288 49.2578 111.481C49.1758 111.669 49.1348 111.871 49.1348 112.088V116.271C49.1348 116.488 49.1758 116.693 49.2578 116.887C49.3398 117.074 49.4512 117.238 49.5918 117.379C49.7324 117.52 49.8965 117.631 50.084 117.713C50.2773 117.795 50.4824 117.836 50.6992 117.836H51.4199C51.6367 117.836 51.8389 117.795 52.0264 117.713C52.2197 117.631 52.3867 117.52 52.5273 117.379C52.668 117.238 52.7793 117.074 52.8613 116.887C52.9434 116.693 52.9844 116.488 52.9844 116.271V112.088ZM62.2393 116.21C62.2393 116.573 62.1689 116.916 62.0283 117.238C61.8936 117.561 61.7061 117.842 61.4658 118.082C61.2256 118.322 60.9443 118.513 60.6221 118.653C60.2998 118.788 59.957 118.855 59.5938 118.855H58.873C58.5098 118.855 58.167 118.788 57.8447 118.653C57.5225 118.513 57.2412 118.322 57.001 118.082C56.7607 117.842 56.5703 117.561 56.4297 117.238C56.2949 116.916 56.2275 116.573 56.2275 116.21V112.149C56.2275 111.786 56.2949 111.443 56.4297 111.121C56.5703 110.799 56.7607 110.518 57.001 110.277C57.2412 110.037 57.5225 109.85 57.8447 109.715C58.167 109.574 58.5098 109.504 58.873 109.504H59.5938C59.957 109.504 60.2998 109.574 60.6221 109.715C60.9443 109.85 61.2256 110.037 61.4658 110.277C61.7061 110.518 61.8936 110.799 62.0283 111.121C62.1689 111.443 62.2393 111.786 62.2393 112.149V114.268H57.3086V116.271C57.3086 116.488 57.3496 116.693 57.4316 116.887C57.5137 117.074 57.625 117.238 57.7656 117.379C57.9062 117.52 58.0703 117.631 58.2578 117.713C58.4512 117.795 58.6562 117.836 58.873 117.836H59.5938C59.8105 117.836 60.0127 117.795 60.2002 117.713C60.3936 117.631 60.5605 117.52 60.7012 117.379C60.8418 117.238 60.9531 117.074 61.0352 116.887C61.1172 116.693 61.1582 116.488 61.1582 116.271V115.674L62.2393 115.85V116.21ZM61.1582 112.088C61.1582 111.871 61.1172 111.669 61.0352 111.481C60.9531 111.288 60.8418 111.121 60.7012 110.98C60.5605 110.84 60.3936 110.729 60.2002 110.646C60.0127 110.564 59.8105 110.523 59.5938 110.523H58.873C58.6562 110.523 58.4512 110.564 58.2578 110.646C58.0703 110.729 57.9062 110.84 57.7656 110.98C57.625 111.121 57.5137 111.288 57.4316 111.481C57.3496 111.669 57.3086 111.871 57.3086 112.088V113.424H61.1582V112.088ZM69.332 118.68V112.088C69.332 111.871 69.291 111.669 69.209 111.481C69.127 111.288 69.0156 111.121 68.875 110.98C68.7344 110.84 68.5674 110.729 68.374 110.646C68.1865 110.564 67.9844 110.523 67.7676 110.523H67.0469C66.8301 110.523 66.625 110.564 66.4316 110.646C66.2441 110.729 66.0801 110.84 65.9395 110.98C65.7988 111.121 65.6875 111.288 65.6055 111.481C65.5234 111.669 65.4824 111.871 65.4824 112.088V118.68H64.4014V109.68H64.7617L65.3506 110.594C65.5967 110.26 65.9043 109.996 66.2734 109.803C66.6484 109.604 67.0557 109.504 67.4951 109.504H67.7676C68.1309 109.504 68.4736 109.574 68.7959 109.715C69.1182 109.85 69.3994 110.037 69.6396 110.277C69.8799 110.518 70.0674 110.799 70.2021 111.121C70.3428 111.443 70.4131 111.786 70.4131 112.149V118.68H69.332Z" fill="#313131"/>
<defs>
<clipPath id="clip0_160_194">
<rect width="93" height="95.6398" fill="white" transform="translate(0 93) rotate(-90)"/>
</clipPath>
</defs>
</svg>
