<svg width="158" height="162" viewBox="0 0 158 162" fill="none" xmlns="http://www.w3.org/2000/svg">
<path d="M20.3537 129.244C24.4466 136.261 33.217 143.277 54.8509 154.971C59.1386 157.31 68.6497 156.84 74.7306 157.308C82.3316 157.892 98.7032 159.65 106.889 157.311C115.075 154.973 146.064 118.719 151.326 110.533C156.588 102.347 153.08 91.2391 151.326 75.4522C149.572 59.6654 150.741 57.9113 148.987 44.4632C147.233 31.0152 113.321 15.813 104.55 15.813C95.7797 15.813 78.8235 4.11905 67.7142 3.53436C56.6049 2.94966 42.5722 11.7202 34.3864 15.813C26.2007 19.9059 23.8619 35.1081 18.0149 44.4632C12.1679 53.8184 3.39746 62.0033 3.39746 69.0197C3.39746 76.036 5.15155 92.4076 5.73625 98.2545C6.32095 104.102 16.2608 122.228 20.3537 129.244Z" fill="#BC2E19"/>
</svg>
