<svg width="151" height="155" viewBox="0 0 151 155" fill="none" xmlns="http://www.w3.org/2000/svg">
<path d="M16.9562 125.737C21.0491 132.753 29.8196 139.769 51.4534 151.463C55.7412 153.802 65.2523 153.332 71.3331 153.8C78.9342 154.385 95.3057 156.142 103.491 153.804C111.677 151.465 142.666 115.211 147.929 107.025C153.191 98.8396 149.683 87.7312 147.929 71.9444C146.174 56.1576 147.344 54.4035 145.59 40.9554C143.836 27.5074 109.923 12.3052 101.153 12.3052C92.3822 12.3052 75.426 0.611237 64.3167 0.0265503C53.2075 -0.558151 39.1747 8.21236 30.989 12.3052C22.8032 16.3981 20.4644 31.6003 14.6174 40.9554C8.77046 50.3106 0 58.4955 0 65.5119C0 72.5282 1.75409 88.8997 2.33879 94.7467C2.92349 100.594 12.8633 118.72 16.9562 125.737Z" fill="white"/>
</svg>
