<svg width="45" height="61" viewBox="0 0 45 61" fill="none" xmlns="http://www.w3.org/2000/svg">
<path d="M39.3928 8.61395C38.1874 6.54751 35.6044 4.48108 29.2329 1.03702C27.97 0.348204 25.1689 0.486634 23.378 0.348871C21.1393 0.176668 16.3176 -0.341056 13.9068 0.347756C11.496 1.03657 2.3692 11.7139 0.819369 14.1247C-0.730459 16.5355 0.302759 19.8071 0.819368 24.4566C1.33598 29.1061 1.20777 29.8051 2.50321 33.5834C3.50321 36.5 9.4068 40.5213 13.9068 42.0213C18.4068 43.5213 20.0039 56.5 21.0039 61C22.0039 56.5 23.2736 43 27.0032 42.0213C30.7329 41.0426 33.5924 40.7054 36.0032 39.5C38.414 38.2946 39.4404 35.9988 41.6135 33.5834C44.3867 30.5008 44.3867 28.4186 44.3867 26.3527L44.3867 26.3511C44.3867 24.2847 43.8701 19.463 43.6979 17.741C43.5257 16.0189 40.5983 10.6804 39.3928 8.61395Z" fill="white"/>
</svg>
